<?xml version="1.0" encoding="UTF-8"?>
<svg xmlns="http://www.w3.org/2000/svg" version="1.1" width="250" height="250" viewBox="0 0 250 250"><rect x="0" y="0" width="250" height="250" fill="#ffffff"/><g transform="scale(10)"><g transform="translate(0,0)"><path fill-rule="evenodd" d="M10 0L10 1L9 1L9 3L8 3L8 5L9 5L9 6L8 6L8 7L9 7L9 6L10 6L10 8L9 8L9 10L10 10L10 11L8 11L8 8L5 8L5 9L7 9L7 10L4 10L4 11L2 11L2 10L3 10L3 9L2 9L2 8L0 8L0 10L1 10L1 11L2 11L2 13L1 13L1 12L0 12L0 17L1 17L1 14L2 14L2 17L3 17L3 15L4 15L4 16L6 16L6 17L7 17L7 16L6 16L6 15L7 15L7 14L6 14L6 13L7 13L7 12L6 12L6 13L5 13L5 11L8 11L8 12L9 12L9 14L8 14L8 16L9 16L9 15L11 15L11 14L12 14L12 15L13 15L13 14L12 14L12 13L13 13L13 12L11 12L11 14L10 14L10 11L11 11L11 10L12 10L12 9L14 9L14 8L13 8L13 6L12 6L12 9L10 9L10 8L11 8L11 5L12 5L12 4L14 4L14 5L15 5L15 4L17 4L17 0L16 0L16 3L12 3L12 4L11 4L11 0ZM12 1L12 2L13 2L13 1ZM9 4L9 5L11 5L11 4ZM14 6L14 7L15 7L15 6ZM16 6L16 8L15 8L15 12L14 12L14 14L15 14L15 15L14 15L14 16L10 16L10 18L9 18L9 17L8 17L8 20L9 20L9 23L8 23L8 25L9 25L9 24L10 24L10 25L11 25L11 23L10 23L10 21L11 21L11 22L12 22L12 21L11 21L11 19L12 19L12 20L13 20L13 21L14 21L14 24L15 24L15 23L16 23L16 25L19 25L19 24L21 24L21 25L22 25L22 24L21 24L21 23L20 23L20 22L19 22L19 21L21 21L21 22L22 22L22 23L23 23L23 22L24 22L24 25L25 25L25 21L24 21L24 19L25 19L25 18L24 18L24 19L23 19L23 20L21 20L21 19L22 19L22 18L23 18L23 15L24 15L24 16L25 16L25 14L24 14L24 13L25 13L25 10L24 10L24 9L22 9L22 8L20 8L20 9L19 9L19 10L18 10L18 11L17 11L17 10L16 10L16 9L17 9L17 6ZM1 9L1 10L2 10L2 9ZM22 10L22 12L20 12L20 14L19 14L19 13L18 13L18 12L19 12L19 11L18 11L18 12L17 12L17 11L16 11L16 13L17 13L17 15L16 15L16 16L14 16L14 18L13 18L13 17L12 17L12 18L13 18L13 20L14 20L14 19L16 19L16 16L17 16L17 15L18 15L18 14L19 14L19 15L20 15L20 16L21 16L21 18L22 18L22 15L23 15L23 13L24 13L24 11L23 11L23 10ZM2 13L2 14L3 14L3 13ZM4 14L4 15L5 15L5 14ZM21 14L21 15L22 15L22 14ZM17 17L17 20L20 20L20 17ZM10 18L10 19L9 19L9 20L10 20L10 19L11 19L11 18ZM18 18L18 19L19 19L19 18ZM15 21L15 22L16 22L16 21ZM22 21L22 22L23 22L23 21ZM17 22L17 23L18 23L18 24L19 24L19 22ZM12 24L12 25L13 25L13 24ZM0 0L0 7L7 7L7 0ZM1 1L1 6L6 6L6 1ZM2 2L2 5L5 5L5 2ZM18 0L18 7L25 7L25 0ZM19 1L19 6L24 6L24 1ZM20 2L20 5L23 5L23 2ZM0 18L0 25L7 25L7 18ZM1 19L1 24L6 24L6 19ZM2 20L2 23L5 23L5 20Z" fill="#000000"/></g></g></svg>
